<?xml version="1.0" encoding="UTF-8" standalone="no"?>
<!-- Created with Inkscape (http://www.inkscape.org/) -->

<svg
   xmlns:dc="http://purl.org/dc/elements/1.1/"
   xmlns:cc="http://creativecommons.org/ns#"
   xmlns:rdf="http://www.w3.org/1999/02/22-rdf-syntax-ns#"
   xmlns:svg="http://www.w3.org/2000/svg"
   xmlns="http://www.w3.org/2000/svg"
   xmlns:sodipodi="http://sodipodi.sourceforge.net/DTD/sodipodi-0.dtd"
   xmlns:inkscape="http://www.inkscape.org/namespaces/inkscape"
   width="2800"
   height="670.06586"
   id="svg2"
   version="1.1"
   inkscape:version="0.48.0 r9654"
   sodipodi:docname="Documento nuevo 1">
  <defs
     id="defs4">
    <style
       type="text/css"
       id="style2989">
   
    .fil1 {fill:#676766;fill-rule:nonzero}
    .fil0 {fill:#0F9588;fill-rule:nonzero}
   
  </style>
  </defs>
  <sodipodi:namedview
     id="base"
     pagecolor="#ffffff"
     bordercolor="#666666"
     borderopacity="1.0"
     inkscape:pageopacity="0.0"
     inkscape:pageshadow="2"
     inkscape:zoom="0.35"
     inkscape:cx="1364.2058"
     inkscape:cy="32.175773"
     inkscape:document-units="px"
     inkscape:current-layer="layer1"
     showgrid="false"
     fit-margin-top="0"
     fit-margin-left="0"
     fit-margin-right="0"
     fit-margin-bottom="0"
     inkscape:window-width="1680"
     inkscape:window-height="988"
     inkscape:window-x="-8"
     inkscape:window-y="-8"
     inkscape:window-maximized="1" />
  <metadata
     id="metadata7">
    <rdf:RDF>
      <cc:Work
         rdf:about="">
        <dc:format>image/svg+xml</dc:format>
        <dc:type
           rdf:resource="http://purl.org/dc/dcmitype/StillImage" />
        <dc:title></dc:title>
      </cc:Work>
    </rdf:RDF>
  </metadata>
  <g
     inkscape:label="Capa 1"
     inkscape:groupmode="layer"
     id="layer1"
     transform="translate(1014.2058,-123.04355)">
    <g
       id="layer1-9"
       inkscape:label="Capa 1"
       transform="translate(-87.71428,-88.571427)">
      <g
         style="fill:#ececec"
         transform="matrix(0.99969808,0,0,0.99969808,-1316.3163,-127.94637)"
         id="Layer_x0020_1">
        <metadata
           id="CorelCorpID_0Corel-Layer" />
        <g
           style="fill:#ececec"
           id="_477764792">
          <path
             style="fill:#ececec;fill-rule:nonzero"
             inkscape:connector-curvature="0"
             id="_477763544"
             class="fil0"
             d="m 1103.22,746.668 0,-258.742 c 0,-11.3662 -5.125,-18.6656 -12.3099,-18.6656 l -63.6046,0 c -7.1861,0 -11.7961,6.48567 -11.7961,18.6656 l 0,258.742 87.7106,0 z" />
          <path
             style="fill:#ececec;fill-rule:nonzero"
             inkscape:connector-curvature="0"
             id="_477763784"
             class="fil0"
             d="m 735.426,746.668 84.1294,0 0,-193.618 c 14.8812,-15.0962 28.7219,-21.8524 53.3547,-21.8524 15.3832,0 24.621,8.32707 24.621,33.3036 l 0,182.167 84.1282,0 0,-181.121 c 0,-55.1689 -13.8525,-99.9414 -80.5423,-99.9414 -41.5456,0 -62.0656,17.1809 -81.5616,33.3201 l 0,-159.262 -84.1294,0 0,407.005 z" />
          <path
             style="fill:#ececec;fill-rule:nonzero"
             inkscape:connector-curvature="0"
             id="_477763880"
             class="fil0"
             d="m 1140.67,746.668 84.1282,0 0,-193.618 c 14.8812,-15.0962 28.7172,-21.8524 53.3511,-21.8524 15.382,0 24.621,8.32707 24.621,33.3036 l 0,182.167 84.1282,0 0,-181.121 c 0,-55.1689 -13.8489,-99.9414 -80.5423,-99.9414 -41.5456,0 -61.038,16.6671 -81.558,33.3201 l -14.8812,-28.6357 -69.247,0 0,276.378 z" />
          <path
             style="fill:#ececec;fill-rule:nonzero"
             inkscape:connector-curvature="0"
             id="_477763856"
             class="fil0"
             d="m 1685.44,517.66 0,-48.3998 -167.743,0 c -64.1232,0 -96.4393,32.2642 -96.4393,98.3705 0,27.5762 7.6952,62.4507 30.2597,77.0319 -22.5646,7.79674 -32.3161,27.5762 -32.3161,50.9947 0,31.2318 14.3663,49.9707 28.7337,57.2524 l -28.7337,22.3945 0,31.7456 c 0,55.1689 37.9596,80.1454 86.1846,80.1454 l 80.5305,0 c 67.2071,0 88.241,-37.4742 88.241,-80.1454 l 0,-29.1459 c 0,-60.3825 -33.8587,-85.3602 -85.6708,-85.3602 l -74.372,0 c -11.2988,0 -20.5248,-1.04059 -20.5248,-12.4965 0,-11.4524 12.3099,-10.922 20.5248,-10.922 l 56.9371,0 c 78.4847,0 96.4381,-46.8454 96.4381,-90.0422 0,-31.2318 -3.5978,-40.0892 -8.2137,-52.0554 l 26.1635,-9.36766 z m -181.596,240.465 c 0,0 13.3387,1.04059 21.0386,1.04059 l 42.0558,0 c 16.9376,0 23.6052,8.84087 23.6052,21.3374 l 0,16.1356 c 0,13.5253 -1.0276,24.9777 -25.1348,24.9777 l -33.3449,0 c -18.4637,0 -28.2199,-3.1135 -28.2199,-26.5486 l 0,-36.9427 z m 79.5182,-190.494 c 0,24.9765 -6.6711,35.3883 -29.2475,35.3883 l -21.022,0 c -20.0062,0 -27.7061,-9.885 -27.7061,-35.3883 0,-17.6947 3.0733,-32.276 27.7061,-32.276 l 20.507,0 c 20.0062,0 29.2487,6.24235 29.7625,32.276 z" />
          <path
             style="fill:#ececec;fill-rule:nonzero"
             inkscape:connector-curvature="0"
             id="_477764264"
             class="fil0"
             d="m 1927.28,746.668 84.1318,0 0,-163.942 c 10.25,-28.1065 31.8023,-30.7216 57.4521,-30.7216 15.9088,0 32.3161,0 40.016,0.53033 l 0,-81.7151 c -7.6999,-3.13003 -16.9376,-3.13003 -27.7061,-3.13003 -30.7783,0 -55.3992,18.7389 -69.762,37.4742 l -11.2823,-34.8745 -72.8495,0 0,276.378 z" />
          <path
             style="fill:#ececec;fill-rule:nonzero"
             inkscape:connector-curvature="0"
             id="_477764432"
             class="fil0"
             d="m 2368.43,746.672 0,-189.453 c 0,-72.8755 -41.0448,-92.1246 -105.682,-92.1246 -50.7798,0 -85.1405,4.17062 -121.059,19.2491 l 0,51.5416 c 12.3099,-1.04413 89.2567,-5.72855 108.234,-5.72855 22.0673,0 34.3772,2.07291 34.3772,30.705 0.5138,0.51498 0,11.4524 0,11.4524 0,0.5138 -67.7056,0 -67.7056,0 -64.122,0 -84.1282,38.5183 -84.1282,78.0772 l 0,23.9324 c 0,32.7898 22.5599,73.3892 80.5305,75.474 39.4975,1.04413 67.7174,-24.4639 71.3033,-32.2724 l 17.4361,29.1471 66.6933,0 z m -84.1294,-82.2301 c 0,0 -17.4396,19.7795 -43.5984,19.7795 -11.7961,0 -24.1072,-0.53033 -24.1072,-22.9083 l 0,-8.85386 c 0,-10.4118 1.5272,-24.4627 19.4924,-26.0218 l 48.2131,-4.15291 0,42.1574 z" />
          <path
             style="fill:#ececec;fill-rule:nonzero"
             inkscape:connector-curvature="0"
             id="_477764552"
             class="fil0"
             d="m 2402.8,608.221 c 0,111.381 38.9884,141.055 89.2579,141.055 43.0846,-0.52679 93.3671,5.19704 132.354,-18.7353 l 0,-51.5251 c 0,0 -43.1,4.15409 -90.2855,4.15409 -36.9438,0 -47.1974,-6.23881 -47.1974,-73.903 0,-74.9484 13.3387,-75.9878 47.1974,-75.9878 45.6583,0 86.6866,3.12531 86.6866,3.12531 l 0,-51.0113 c -48.2131,-17.6947 -102.082,-17.6947 -128.755,-17.6947 -52.3259,0 -89.2579,29.1471 -89.2579,140.523 z" />
          <polygon
             style="fill:#ececec;fill-rule:nonzero"
             id="_477764528"
             class="fil0"
             points="2742.39,561.902 2742.39,392.747 2658.26,392.747 2658.26,747.713 2742.39,747.713 2742.39,623.839 2755.72,623.839 2828.57,747.713 2928.08,747.713 2832.67,592.608 2928.08,471.333 2822.93,471.333 2755.72,561.902 " />
          <path
             style="fill:#ececec;fill-rule:nonzero"
             inkscape:connector-curvature="0"
             id="_477764672"
             class="fil0"
             d="m 1710.27,531.711 41.5586,0 0,116.065 c 0,73.3881 26.1505,98.8913 66.6768,98.8913 l 68.7497,0 0,-51.0101 c -3.084,0 -29.7613,-10.4118 -29.7613,-10.4118 -13.3387,-6.23881 -21.537,-14.0509 -21.537,-53.0795 l 0,-100.455 54.3716,0 0,-61.9369 -54.3716,0 0,-77.0272 -70.8014,0 -13.3269,77.0272 -41.5586,17.1809 0,44.7559 z" />
          <polygon
             style="fill:#ececec;fill-rule:nonzero"
             id="_477765848"
             class="fil0"
             points="699.519,553.445 699.519,469.261 427.954,469.261 427.954,553.445 525.764,553.445 525.764,749.826 612.589,749.826 612.589,553.445 " />
          <path
             style="fill:#ececec;fill-rule:nonzero"
             inkscape:connector-curvature="0"
             id="_477765704"
             class="fil0"
             d="m 1016.44,798.655 0,73.9149 c 0,0 0,14.6261 14.6391,14.6261 l 57.5076,0 c 0,0 14.6379,0 14.6379,-14.6261 l 0,-73.9149 -86.7846,0 z" />
          <path
             style="fill:#ececec;fill-rule:nonzero"
             inkscape:connector-curvature="0"
             id="_477765800"
             class="fil1"
             d="m 2177.59,917.517 0,-18.6337 -0.8989,-0.90358 -7.8416,0 c -3.9426,0 -6.7396,0.93193 -8.4121,2.77333 -1.6713,1.84259 -2.5135,4.93837 -2.5135,9.31096 l 0,7.45302 -10.0232,-0.25512 c -0.6035,2.3115 -0.9024,4.73993 -0.9024,7.25341 0,2.543 0.2989,4.86986 0.9024,7.01246 l 10.0232,-0.12993 0,32.9032 c 0,11.9095 5.4002,17.8684 16.197,17.8684 5.3105,0 11.1358,-0.42875 17.4798,-1.28745 0.3402,-1.11264 0.5138,-2.95522 0.5138,-5.5254 0,-2.57017 -0.5586,-5.40019 -1.6713,-8.48534 l -7.1979,0 c -3.769,0 -5.6553,-2.01149 -5.6553,-6.03919 l 0,-29.5593 15.2935,0.25513 c 0.515,-2.3115 0.7736,-4.67261 0.7736,-7.06915 0,-2.40009 -0.2586,-4.80017 -0.7736,-7.19672 l -15.2935,0.25513 z m 76.0327,5.01514 c -3.1418,-4.20251 -7.57,-6.29905 -13.3103,-6.29905 -5.7404,0 -11.4807,2.35638 -17.2258,7.06797 l 0,-24.2926 c 0,-4.45292 -0.8126,-7.58177 -2.4402,-9.37947 -1.6277,-1.80125 -4.4577,-2.7001 -8.4807,-2.7001 l -7.7117,0 -0.9035,0.89885 0,93.6979 c 2.915,0.5138 6.1856,0.76893 9.8413,0.76893 3.6273,0 6.8695,-0.25513 9.6948,-0.76893 l 0,-42.9299 c 3.1737,-2.91152 6.0853,-4.36787 8.7405,-4.36787 2.6599,0 4.3714,0.67089 5.1415,1.98314 0.7725,1.34414 1.1575,3.49737 1.1575,6.49748 l 0,27.3778 c 0,4.19779 0.8138,7.32664 2.4414,9.38301 1.6312,2.05637 4.6998,3.08515 9.1964,3.08515 4.5026,0 8.4121,-1.45753 11.7559,-4.3726 -2.1449,-2.8253 -3.2139,-7.06797 -3.2139,-12.7233 l 0,-26.349 c 0,-6.85418 -1.5709,-12.3796 -4.6832,-16.5774 z m 39.0723,-1.54258 c -2.5418,-2.7438 -5.9423,-4.11275 -10.2252,-4.11275 l -2.83,0 c -3.0852,0 -6.853,0.21024 -11.3106,0.64018 -0.5138,1.88629 -0.7689,4.26984 -0.7689,7.12821 0,2.88199 0.2551,5.16987 0.7689,6.88253 l 1.9312,0 c 4.0241,0 6.0391,2.48513 6.0391,7.45657 l 0,42.5413 c 3.0002,0.5138 6.3971,0.76892 10.2264,0.76892 3.7974,0 7.1247,-0.25512 9.9547,-0.76892 l 0,-49.3553 c 0,-4.71159 -1.2721,-8.43928 -3.7855,-11.1807 z m -18.7105,-14.5245 c 2.145,1.2839 5.2419,1.92645 9.311,1.92645 4.0726,0 7.3148,-0.64254 9.7113,-1.92645 1.0276,-2.31504 1.5426,-4.80135 1.5426,-7.45657 0,-2.65521 -0.515,-5.14152 -1.5426,-7.45302 -2.3115,-1.37249 -5.425,-2.05637 -9.3109,-2.05637 -3.9108,0 -7.1412,0.68388 -9.7114,2.05637 -1.0288,2.3115 -1.5426,4.79781 -1.5426,7.45302 0,2.65521 0.5138,5.14152 1.5426,7.45657 z m 88.2292,16.0671 c -3.1288,-4.20251 -7.6833,-6.29905 -13.6824,-6.29905 -5.9955,0 -11.9508,2.65521 -17.8648,7.96682 -1.7977,-5.14152 -5.3104,-7.71169 -10.537,-7.71169 l -7.5865,0 -0.8988,0.90239 0,64.135 c 2.83,0.5138 6.1691,0.76893 10.0279,0.76893 3.854,0 7.1967,-0.25513 10.0232,-0.76893 l 0,-42.9299 c 3.169,-2.91152 6.084,-4.36787 8.7392,-4.36787 2.6564,0 4.3726,0.67089 5.1416,1.98314 0.7736,1.34415 1.1575,3.49738 1.1575,6.49748 l 0,27.3778 c 0,4.1978 0.8138,7.32664 2.4414,9.38301 1.6276,2.05637 4.6714,3.08515 9.1244,3.08515 4.4564,0 8.3554,-1.45753 11.6992,-4.3726 -2.0564,-2.8253 -3.0852,-7.06797 -3.0852,-12.7233 l 0,-26.349 c 0,-6.85418 -1.5697,-12.3796 -4.6998,-16.5774 z m 58.423,22.3614 c 2.6552,-1.79652 4.8415,-4.32653 6.5542,-7.58177 l 9.898,-19.1511 -0.769,-1.02878 c -4.9714,-0.17009 -8.7003,-0.25513 -11.1854,-0.25513 -5.1415,0 -8.9105,2.44143 -11.3106,7.3231 l -6.6841,12.8532 c -0.8539,1.54258 -2.0563,2.31504 -3.5977,2.31504 l -2.0564,0 0,-40.3597 c 0,-4.45292 -0.8138,-7.58177 -2.4414,-9.37947 -1.6277,-1.80125 -4.4577,-2.7001 -8.4807,-2.7001 l -7.7116,0 -0.9036,0.89885 0,93.6979 c 2.83,0.5138 6.0852,0.76893 9.768,0.76893 3.6888,0 6.9428,-0.25513 9.7693,-0.76893 l 0,-25.5765 c 0.7725,-0.0886 2.1001,-0.12874 3.9864,-0.12874 1.8827,0 3.3851,0.4571 4.4978,1.33942 1.1138,0.90357 2.0977,2.68829 2.9552,5.3435 l 3.8576,11.052 c 1.1138,3.34382 2.3965,5.68367 3.8541,6.99946 1.4575,1.32761 3.5989,1.99968 6.4289,1.99968 5.2254,0 9.7232,-2.10126 13.4922,-6.29905 -2.3965,-1.62762 -4.4529,-5.27027 -6.1691,-10.9256 l -3.2103,-9.38065 c -1.8863,-5.48524 -5.4002,-9.16805 -10.5417,-11.0555 z m 47.2257,-23.904 c -2.5253,-2.7438 -5.9258,-4.11275 -10.2098,-4.11275 l -2.8253,0 c -3.084,0 -6.8577,0.21024 -11.3106,0.64018 -0.5138,1.88629 -0.7725,4.26984 -0.7725,7.12821 0,2.88199 0.2587,5.16987 0.7725,6.88253 l 1.9276,0 c 4.0277,0 6.0392,2.48513 6.0392,7.45657 l 0,42.5413 c 3.0001,0.5138 6.4006,0.76892 10.2098,0.76892 3.8128,0 7.1412,-0.25512 9.9701,-0.76892 l 0,-49.3553 c 0,-4.71159 -1.2709,-8.43928 -3.801,-11.1807 z m -18.6904,-14.5245 c 2.1414,1.2839 5.2384,1.92645 9.311,1.92645 4.069,0 7.3113,-0.64254 9.7113,-1.92645 1.0288,-2.31504 1.5426,-4.80135 1.5426,-7.45657 0,-2.65521 -0.5138,-5.14152 -1.5426,-7.45302 -2.315,-1.37249 -5.4285,-2.05637 -9.3263,-2.05637 -3.899,0 -7.1247,0.68388 -9.696,2.05637 -1.0276,2.3115 -1.5426,4.79781 -1.5426,7.45302 0,2.65521 0.515,5.14152 1.5426,7.45657 z m 88.2256,16.0671 c -3.1253,-4.20251 -7.6833,-6.29905 -13.6788,-6.29905 -5.999,0 -11.9544,2.65521 -17.8684,7.96682 -1.7977,-5.14152 -5.3116,-7.71169 -10.537,-7.71169 l -7.5829,0 -0.9024,0.90239 0,64.135 c 2.83,0.5138 6.1691,0.76893 10.0279,0.76893 3.8528,0 7.1967,-0.25513 10.0232,-0.76893 l 0,-42.9299 c 3.1737,-2.91152 6.084,-4.36787 8.7392,-4.36787 2.66,0 4.3726,0.67089 5.1416,1.98314 0.7724,1.34415 1.1575,3.49738 1.1575,6.49748 l 0,27.3778 c 0,4.1978 0.8138,7.32664 2.4414,9.38301 1.6312,2.05637 4.6714,3.08515 9.1279,3.08515 4.4529,0 8.3519,-1.45753 11.6957,-4.3726 -2.0564,-2.8253 -3.0851,-7.06797 -3.0851,-12.7233 l 0,-26.349 c 0,-6.85418 -1.571,-12.3796 -4.6998,-16.5774 z m 39.2754,60.2774 c 5.1403,0 10.0232,-1.66778 14.6497,-5.0116 l 0,4.24149 c 0,8.65543 -4.3277,12.9831 -12.982,12.9831 -5.8254,0 -11.6508,-1.28745 -17.4798,-3.85762 -1.3689,1.62644 -2.5265,3.85762 -3.469,6.68292 -0.9438,2.83005 -1.4138,5.44035 -1.4138,7.84165 7.3679,2.8253 15.4234,4.2426 24.1639,4.2426 11.1406,0 19.1924,-3.13 24.1639,-9.3842 4.3678,-5.65528 6.5529,-15.89696 6.5529,-30.71686 l 0,-33.9319 c 0,-4.45646 1.1989,-7.54161 3.599,-9.25427 -0.2551,-1.7162 -1.0122,-3.59895 -2.2548,-5.65532 -1.2426,-2.05637 -2.5418,-3.59895 -3.9143,-4.62654 -5.0565,0.085 -9.0842,1.7977 -12.0796,5.14152 -4.6266,-4.02888 -10.4401,-6.04392 -17.4231,-6.04392 -6.983,0 -12.9383,3.01546 -17.8684,9.05466 -4.9266,6.04037 -7.3798,14.2541 -7.3798,24.621 0,10.3681 1.9382,18.5652 5.8372,24.621 3.9025,6.02384 9.6712,9.05229 17.2979,9.05229 z m 5.0116,-16.1935 c -5.0565,0 -7.5829,-5.65532 -7.5829,-16.9648 0,-12.8532 2.9115,-19.2822 8.7404,-19.2822 2.5702,0 5.3967,1.45753 8.4806,4.3726 l 0,27.503 c -2.9138,2.91507 -6.1242,4.37142 -9.6381,4.37142 z m 91.7679,16.8372 c 8.7393,0 15.4671,-1.88747 20.1799,-5.65532 4.7116,-3.76903 7.068,-8.8704 7.068,-15.2946 0,-9.76807 -5.6955,-16.666 -17.0912,-20.6937 l -7.9716,-2.8253 c -3.254,-1.20241 -4.8817,-2.83002 -4.8817,-4.8864 0,-1.19886 0.4406,-2.1863 1.3395,-2.95522 0.8988,-0.77365 2.2146,-1.15752 3.9273,-1.15752 4.8013,0 10.7957,1.62644 17.9936,4.88521 1.6311,-1.20122 3.0001,-3.23043 4.1127,-6.11242 1.1174,-2.85719 1.5875,-5.50059 1.4174,-7.89713 -2.9151,-1.45753 -6.6428,-2.71309 -11.1854,-3.80211 -4.538,-1.05594 -8.6956,-1.59809 -12.4634,-1.59809 -7.6267,0 -13.6989,1.91464 -18.1967,5.72737 -4.4978,3.81392 -6.7408,8.96725 -6.7408,15.4801 0,8.91056 5.3565,15.3383 16.0671,19.281 l 7.068,2.69655 c 3.9438,1.28745 5.9152,3.21389 5.9152,5.78525 0,1.37249 -0.6438,2.46859 -1.9312,3.27059 -1.2839,0.83035 -3.1253,1.22603 -5.5254,1.22603 -5.0565,0 -11.0118,-1.79652 -17.8648,-5.39547 -1.4575,1.54258 -2.7285,3.63911 -3.8009,6.29905 -1.069,2.65521 -1.6395,5.09664 -1.7245,7.3231 7.4518,4.19779 15.5486,6.29905 24.2891,6.29905 z m 63.5515,-67.9926 c -8.5255,0 -15.31,2.53001 -20.3665,7.58531 -6.1691,6.1703 -9.2543,14.9781 -9.2543,26.4021 0,11.4406 3.0852,20.2531 9.2543,26.4222 5.0565,5.05648 11.841,7.58295 20.3665,7.58295 8.5255,0 15.3667,-2.52647 20.5082,-7.58295 6.1691,-6.16912 9.2531,-14.9816 9.2531,-26.4222 0,-11.424 -3.084,-20.2318 -9.2531,-26.4021 -5.1415,-5.0553 -11.9827,-7.58531 -20.5082,-7.58531 z m -9.0558,31.8744 c 0,-4.36787 0.5138,-8.14045 1.5425,-11.3106 1.2024,-3.68399 3.7277,-5.5254 7.5865,-5.5254 3.5978,0 5.9825,1.59927 7.1967,4.81316 1.1989,3.21389 1.7977,7.91013 1.7977,14.0792 0,6.16912 -0.5988,10.8819 -1.7977,14.1407 -1.2142,3.25405 -3.6709,4.88167 -7.3998,4.88167 -3.7277,0 -6.1526,-1.71266 -7.2546,-5.14152 -1.1127,-3.42414 -1.6713,-8.73929 -1.6713,-15.9372 z m 69.7773,13.4969 0,-61.8235 c 0,-4.45292 -0.8127,-7.58177 -2.4403,-9.37947 -1.6276,-1.80125 -4.4576,-2.7001 -8.4853,-2.7001 l -7.8369,0 -0.7737,0.89885 0,76.4732 c 0,6.16912 1.2272,10.6988 3.6722,13.5536 2.4414,2.88554 6.1242,4.31472 11.0508,4.31472 4.9266,0 9.9547,-0.42876 15.0962,-1.28745 0.2587,-0.85751 0.3839,-2.7001 0.3839,-5.5254 0,-2.83002 -0.5138,-5.65532 -1.5414,-8.48534 l -3.4702,0 c -3.7679,0 -5.6553,-2.01149 -5.6553,-6.03919 z m 23.3347,15.5533 c 3.1288,4.19779 7.7117,6.29786 13.7556,6.29786 6.0392,0 12.3949,-3.04381 19.0779,-9.12789 3.0851,5.74036 8.1416,8.73929 15.1647,8.99914 1.2874,-0.94373 2.53,-2.41308 3.7288,-4.4411 1.1977,-1.99968 2.0151,-3.87061 2.4403,-5.58681 -2.3966,-1.71148 -3.599,-4.84151 -3.599,-9.37947 l 0,-45.7564 c -2.9103,-0.5138 -6.2659,-0.77247 -10.0799,-0.77247 -3.8127,0 -7.14,0.25867 -9.97,0.77247 l 0,42.9275 c -2.9954,2.91388 -5.8703,4.37142 -8.6106,4.37142 -2.7402,0 -4.4978,-0.66026 -5.2702,-1.99968 -0.769,-1.3158 -1.154,-3.53044 -1.154,-6.61441 l 0,-27.2478 c 0,-4.19897 -0.8138,-7.3231 -2.445,-9.38065 -1.6276,-2.05637 -4.6844,-3.08397 -9.181,-3.08397 -4.4978,0 -8.3838,1.41265 -11.639,4.23795 2.0563,3.00011 3.0851,7.28294 3.0851,12.8532 l 0,26.349 c 0,6.85418 1.5709,12.3831 4.6963,16.5821 z m 88.4878,-58.8683 0,-18.6337 -0.9024,-0.90358 -7.8369,0 c -3.9439,0 -6.7444,0.93193 -8.4121,2.77333 -1.6725,1.84259 -2.5147,4.93837 -2.5147,9.31096 l 0,7.45302 -10.0267,-0.25512 c -0.5988,2.3115 -0.8989,4.73993 -0.8989,7.25341 0,2.543 0.3001,4.86986 0.8989,7.01246 l 10.0267,-0.12993 0,32.9032 c 0,11.9095 5.3966,17.8684 16.1923,17.8684 5.3163,0 11.1406,-0.42875 17.4809,-1.28745 0.3437,-1.11264 0.5138,-2.95522 0.5138,-5.5254 0,-2.57017 -0.5551,-5.40019 -1.6678,-8.48534 l -7.1979,0 c -3.7726,0 -5.6553,-2.01149 -5.6553,-6.03919 l 0,-29.5593 15.2935,0.25513 c 0.515,-2.3115 0.7701,-4.67261 0.7701,-7.06915 0,-2.40009 -0.2551,-4.80017 -0.7701,-7.19672 l -15.2935,0.25513 z m 47.7525,3.47257 c -2.5265,-2.7438 -5.9388,-4.11275 -10.2216,-4.11275 l -2.8301,0 c -3.0851,0 -6.853,0.21024 -11.3106,0.64018 -0.5138,1.88629 -0.7689,4.26984 -0.7689,7.12821 0,2.88199 0.2551,5.16987 0.7689,6.88253 l 1.9265,0 c 4.0289,0 6.0439,2.48513 6.0439,7.45657 l 0,42.5413 c 2.9966,0.5138 6.4125,0.76892 10.2216,0.76892 3.8139,0 7.1294,-0.25512 9.9547,-0.76892 l 0,-49.3553 c 0,-4.71159 -1.2544,-8.43928 -3.7844,-11.1807 z m -18.707,-14.5245 c 2.1414,1.2839 5.2549,1.92645 9.3275,1.92645 4.0678,0 7.2947,-0.64254 9.6948,-1.92645 1.0276,-2.31504 1.5426,-4.80135 1.5426,-7.45657 0,-2.65521 -0.515,-5.14152 -1.5426,-7.45302 -2.3115,-1.37249 -5.412,-2.05637 -9.311,-2.05637 -3.8977,0 -7.1412,0.68388 -9.7113,2.05637 -1.0288,2.3115 -1.5426,4.79781 -1.5426,7.45302 0,2.65521 0.5138,5.14152 1.5426,7.45657 z m 63.4346,8.9956 c -8.5255,0 -15.3218,2.53001 -20.3783,7.58531 -6.1692,6.1703 -9.2543,14.9781 -9.2543,26.4021 0,11.4406 3.0851,20.2531 9.2543,26.4222 5.0564,5.05648 11.8528,7.58295 20.3783,7.58295 8.529,0 15.3549,-2.52647 20.4952,-7.58295 6.1703,-6.16912 9.2542,-14.9816 9.2542,-26.4222 0,-11.424 -3.0839,-20.2318 -9.2542,-26.4021 -5.1404,-5.0553 -11.9662,-7.58531 -20.4952,-7.58531 z m -9.0677,31.8744 c 0,-4.36787 0.5138,-8.14045 1.5426,-11.3106 1.2024,-3.68399 3.7277,-5.5254 7.5853,-5.5254 3.599,0 5.9955,1.59927 7.1979,4.81316 1.1989,3.21389 1.7977,7.91013 1.7977,14.0792 0,6.16912 -0.5988,10.8819 -1.7977,14.1407 -1.2024,3.25405 -3.6592,4.88167 -7.3833,4.88167 -3.7289,0 -6.1573,-1.71266 -7.2712,-5.14152 -1.1126,-3.42414 -1.6713,-8.73929 -1.6713,-15.9372 z m 100.969,-24.8029 c -3.13,-4.20251 -7.6999,-6.29905 -13.6954,-6.29905 -5.999,0 -11.9544,2.65521 -17.8684,7.96682 -1.7977,-5.14152 -5.3116,-7.71169 -10.537,-7.71169 l -7.5829,0 -0.9024,0.9024 0,64.135 c 2.83,0.51379 6.1691,0.76892 10.0279,0.76892 3.8529,0 7.1967,-0.25513 10.0232,-0.76892 l 0,-42.9299 c 3.1737,-2.91152 6.084,-4.36787 8.7393,-4.36787 2.6599,0 4.3726,0.67089 5.1415,1.98314 0.7724,1.34414 1.1575,3.49737 1.1575,6.49748 l 0,27.3778 c 0,4.19779 0.8138,7.32664 2.4414,9.38301 1.6312,2.05637 4.6715,3.08515 9.1279,3.08515 4.4529,0 8.3519,-1.45753 11.6957,-4.3726 -2.0564,-2.8253 -3.0851,-7.06797 -3.0851,-12.7233 l 0,-26.34901 c 0,-6.85418 -1.558,-12.3796 -4.6833,-16.5774 z m 38.8703,60.9211 c 8.7393,0 15.4683,-1.88747 20.1799,-5.65532 4.7116,-3.76903 7.068,-8.8704 7.068,-15.2946 0,-9.76807 -5.6955,-16.666 -17.0912,-20.6937 l -7.9704,-2.8253 c -3.2552,-1.20241 -4.8828,-2.83002 -4.8828,-4.8864 0,-1.19886 0.4535,-2.1863 1.3559,-2.95522 0.8989,-0.77365 2.1981,-1.15752 3.9108,-1.15752 4.8013,0 10.7968,1.62644 17.9947,4.88521 1.6312,-1.20122 2.9989,-3.23043 4.1127,-6.11242 1.1174,-2.85719 1.5863,-5.50059 1.4162,-7.89713 -2.9138,-1.45753 -6.6427,-2.71309 -11.1843,-3.80211 -4.5379,-1.05594 -8.6956,-1.59809 -12.4646,-1.59809 -7.6266,0 -13.6824,1.91464 -18.1802,5.72737 -4.5013,3.81392 -6.7561,8.96725 -6.7561,15.4801 0,8.91056 5.3553,15.3383 16.0671,19.281 l 7.068,2.69655 c 3.9426,1.28745 5.9139,3.21389 5.9139,5.78525 0,1.37249 -0.6437,2.46859 -1.9311,3.27059 -1.2827,0.83035 -3.1253,1.22603 -5.5254,1.22603 -5.0565,0 -11.0106,-1.79652 -17.8648,-5.39547 -1.4576,1.54258 -2.7119,3.63911 -3.7844,6.29905 -1.0737,2.65521 -1.656,5.09664 -1.741,7.3231 7.453,4.19779 15.5486,6.29905 24.2891,6.29905 z" />
        </g>
      </g>
    </g>
  </g>
</svg>
